<svg width="32" height="32" viewBox="0 0 32 32" fill="none" xmlns="http://www.w3.org/2000/svg">
<g clip-path="url(#clip0_727_1486)">
<g clip-path="url(#clip1_727_1486)">
<path d="M19.4355 0.517578C21.4645 0.517574 22.3424 2.33665 22.6807 3.41504C22.8688 4.01521 22.9664 4.59772 23.0176 5.01758L23.0225 5.05664L23.0215 5.09473H23.0225V5.10352C23.0224 5.10911 23.0216 5.11738 23.0215 5.12695C23.0212 5.14663 23.0209 5.17388 23.0205 5.20117C23.0196 5.26733 23.0187 5.3054 23.0186 5.30273C23.0195 5.3234 23.0202 5.34151 23.0205 5.35059L23.0195 5.35352L23.0215 5.35449L23.0234 5.40039L23.0195 5.44629L22.5674 5.38379C23.0189 5.44549 23.0186 5.44747 23.0186 5.44824V5.44922L23.0176 5.45215C23.0174 5.45395 23.0178 5.45617 23.0176 5.45801C23.017 5.46219 23.0163 5.46728 23.0156 5.47168C23.0142 5.4808 23.0118 5.49112 23.0098 5.50098C23.0057 5.52071 23.0002 5.54243 22.9932 5.56445C22.9789 5.60882 22.9581 5.65566 22.9297 5.70312C22.8714 5.80023 22.7883 5.88761 22.6797 5.95801C22.6451 5.98041 22.6074 6.00021 22.5674 6.01953V6.25H23.7256V9.70801C23.9123 9.89801 24.0628 10.1096 24.1797 10.332C24.3675 10.6895 24.4487 11.0339 24.4854 11.2783L24.5068 11.4492C24.512 11.5019 24.5157 11.5501 24.5176 11.5928C24.5193 11.6335 24.5195 11.6695 24.5195 11.6992L24.5186 11.7227V14.9658H22.0283V11.6943C22.0279 11.6896 22.0273 11.684 22.0264 11.6777C22.0236 11.6594 22.0185 11.6395 22.0127 11.6201C22.0068 11.6005 22.001 11.5844 21.9951 11.5732C21.9882 11.5602 21.9862 11.5565 21.9688 11.5459C21.95 11.5345 21.8923 11.5051 21.7646 11.4912L21.6123 11.4834C21.3754 11.4834 21.2709 11.5302 21.2344 11.5518C21.203 11.5703 21.1928 11.5866 21.1816 11.6064C21.1645 11.637 21.1502 11.6801 21.1416 11.7256C21.1395 11.7369 21.1384 11.7462 21.1377 11.752V14.9658H18.6475V11.6875L18.6484 11.6484C18.6495 11.6215 18.6519 11.5855 18.6553 11.543L18.6699 11.4023C18.6767 11.35 18.6857 11.2924 18.6973 11.2305C18.743 10.9867 18.8367 10.648 19.0332 10.2988C19.1581 10.077 19.3173 9.86315 19.5156 9.67188V6.25H21.1104V6.13574C20.9749 6.10375 20.8587 6.05809 20.7617 5.99219C20.6406 5.90983 20.5488 5.79787 20.4961 5.66699C20.4712 5.60485 20.4579 5.54524 20.4521 5.49316C20.4493 5.46726 20.4481 5.44242 20.4482 5.4209C20.4482 5.41965 20.4482 5.41821 20.4482 5.41699C20.4474 5.39814 20.4461 5.36722 20.4434 5.32715C20.4377 5.24262 20.4268 5.11671 20.4082 4.96387C20.3886 4.80278 20.3777 4.736 20.3604 4.66602C20.3399 4.58345 20.3095 4.49136 20.2402 4.27051C20.1092 3.85247 19.966 3.59211 19.8301 3.44238C19.7081 3.30819 19.5898 3.25885 19.4502 3.25879C19.2422 3.2588 18.8567 3.40451 18.3887 4.39844C17.9416 5.34813 17.6134 6.69894 17.3867 8.16602C17.1636 9.61067 17.0532 11.0687 16.999 12.1738C16.9757 12.6494 16.964 13.0561 16.957 13.3633H16.9629V31.4707H7.48145V13.3633H14.3818C14.3888 13.0251 14.4019 12.563 14.4287 12.0166C14.4857 10.8535 14.6027 9.28643 14.8467 7.70703C15.0872 6.15013 15.4652 4.47656 16.0859 3.1582C16.6824 1.89158 17.7257 0.517886 19.4355 0.517578ZM8.48145 30.4707H15.9629V14.3633H8.48145V30.4707ZM20.5156 10.1387L20.3262 10.2891C20.1496 10.4291 20.0103 10.6008 19.9043 10.7891C19.7755 11.0179 19.7113 11.2455 19.6797 11.4141L19.6514 11.623C19.6494 11.6471 19.6491 11.6679 19.6484 11.6855C19.6482 11.6921 19.6476 11.6961 19.6475 11.7002V13.9658H20.1377V11.7129L20.1387 11.6973C20.1391 11.6898 20.1392 11.6833 20.1396 11.6787C20.1401 11.6742 20.1413 11.6706 20.1416 11.668L20.1406 11.6787C20.1431 11.6475 20.1483 11.6 20.1592 11.542C20.1807 11.4274 20.2235 11.271 20.3105 11.1162C20.3749 11.0018 20.4936 10.8282 20.7246 10.6914C20.9506 10.5576 21.242 10.4834 21.6123 10.4834C21.9799 10.4835 22.2671 10.557 22.4883 10.6914C22.7167 10.8303 22.8254 11.0047 22.8799 11.1084C22.9588 11.2586 22.997 11.4116 23.0146 11.5293C23.0205 11.5683 23.0226 11.6023 23.0244 11.6279L23.0264 11.6387C23.0266 11.6414 23.0263 11.6447 23.0264 11.6484C23.0266 11.6503 23.0272 11.6522 23.0273 11.6543C23.0279 11.6615 23.029 11.673 23.0293 11.6865L23.0303 11.7529L23.0283 11.7607V13.9658H23.5186V11.7148L23.5195 11.6992L23.5176 11.6357L23.4971 11.4268C23.4716 11.2569 23.4161 11.0276 23.2949 10.7969C23.1985 10.6133 23.0685 10.4467 22.9033 10.3076L22.7256 10.1572V7.25H20.5156V10.1387ZM19.4502 1.54785C18.3071 1.54785 17.5074 2.45698 16.9551 3.62988C16.3988 4.81122 16.039 6.36456 15.8037 7.8877C15.5675 9.41692 15.4524 10.9436 15.3965 12.085C15.3733 12.5582 15.3599 12.9663 15.3525 13.2822C15.4382 13.2819 15.5386 13.2817 15.6562 13.2812C15.7864 13.2807 15.896 13.2797 15.9873 13.2793C15.9946 12.9697 16.0085 12.57 16.0312 12.1064C16.0865 10.9797 16.1988 9.48038 16.4297 7.98535C16.6615 6.48448 17.0088 5.01261 17.5205 3.92578C18.0396 2.8236 18.6709 2.22855 19.4365 2.22852C19.8603 2.22864 20.2278 2.4086 20.5215 2.73145C20.8014 3.03942 21.0047 3.46537 21.1592 3.95801C21.2928 4.3841 21.3212 4.46084 21.3682 4.8457C21.382 4.95927 21.3903 5.06074 21.3975 5.14551C21.4624 5.153 21.5555 5.15912 21.6855 5.15527C21.8603 5.15008 21.9774 5.13185 22.0518 5.11426C22.0518 5.10951 22.0517 5.10487 22.0518 5.10059C22.0044 4.72469 21.9185 4.22769 21.7617 3.72754C21.4451 2.71822 20.7872 1.54797 19.4502 1.54785ZM21.1338 11.7881C21.1338 11.7876 21.1345 11.7861 21.1348 11.7842C21.135 11.7822 21.1353 11.7785 21.1357 11.7744C21.1361 11.7706 21.1363 11.7652 21.1367 11.7588L21.1338 11.7881ZM21.7637 6.18262V6.25H21.9131V6.17188C21.8651 6.17578 21.8155 6.1806 21.7637 6.18262Z" fill="white"/>
</g>
</g>
<defs>
<clipPath id="clip0_727_1486">
<rect width="32" height="32" fill="white"/>
</clipPath>
<clipPath id="clip1_727_1486">
<rect width="18" height="32" fill="white" transform="translate(7)"/>
</clipPath>
</defs>
</svg>
