<svg width="32" height="32" viewBox="0 0 32 32" fill="none" xmlns="http://www.w3.org/2000/svg">
<path d="M27.0042 16.0001C27.0042 15.3685 26.9826 14.7513 26.9415 14.1536L26.167 15.2183H12.1895L10.7963 13.9878C10.8441 14.6392 10.8692 15.3121 10.8692 16.0001C10.8692 16.6881 10.8441 17.3609 10.7963 18.0123L12.1895 16.782H26.167L26.9415 17.8465C26.9825 17.2488 27.0042 16.6317 27.0042 16.0001ZM19.7226 27.793H23.1466L23.6039 26.4248H19.2653L19.7226 27.793ZM8.88713 27.793H12.3112L12.7685 26.4248H8.42985L8.88713 27.793ZM26.693 22.9064C26.6537 23.0234 26.6135 23.138 26.5723 23.25C26.2289 24.184 25.8122 24.963 25.3326 25.5148C25.2529 25.6065 25.1703 25.6929 25.0853 25.7732H27.9494C28.3232 25.7732 28.7258 25.568 29.1361 25.096C29.5449 24.6257 29.9283 23.9257 30.2568 23.0322C30.2721 22.9907 30.2871 22.9487 30.3021 22.9064H26.693ZM10.0165 22.4859C9.93651 22.7517 9.85172 23.0067 9.76226 23.25C9.41886 24.184 9.00209 24.963 8.52248 25.5148C8.44273 25.6065 8.36019 25.6929 8.27518 25.7732H23.6287C24.0026 25.7732 24.4051 25.568 24.8154 25.096C25.2242 24.6257 25.6076 23.9257 25.9361 23.0322C25.9873 22.893 26.037 22.7494 26.0851 22.6019L24.6429 23.9489H11.4314L10.0165 22.4859ZM10.7075 18.9738C10.5966 19.9667 10.4315 20.898 10.2208 21.7422L11.7247 23.2974H24.3697L26.3644 21.4344L26.4032 21.4731C26.5996 20.6622 26.7539 19.7657 26.857 18.8071L26.8292 18.826L25.8161 17.4335H12.4517L10.7075 18.9738ZM27.5 19.1275C27.3655 20.2671 27.1591 21.3225 26.8942 22.2549H30.5138C30.7865 21.3376 31.0013 20.2808 31.1411 19.1275H27.5ZM8.10126 16.0001C8.10126 14.676 7.91542 13.4907 7.62427 12.6478C7.47812 12.2246 7.31147 11.9056 7.14287 11.6992C6.97128 11.4891 6.83632 11.4393 6.75105 11.4393H5.62065C5.80891 11.71 5.97008 12.053 6.10436 12.4418C6.42407 13.3674 6.61603 14.6255 6.61603 16.0001C6.61603 17.3748 6.42407 18.6328 6.10436 19.5585C5.97008 19.9472 5.80891 20.2902 5.62065 20.5609H6.75105C6.83632 20.5609 6.97128 20.5112 7.14287 20.301C7.31147 20.0946 7.47812 19.7756 7.62427 19.3524C7.91542 18.5095 8.10126 17.3242 8.10126 16.0001ZM0 16.0327V15.9675C0 15.1579 0.680074 14.5016 1.51899 14.5016H4.62447V15.1531H1.51899C1.05292 15.1531 0.675105 15.5177 0.675105 15.9675V16.0327C0.675105 16.4825 1.05292 16.8471 1.51899 16.8471H4.62447V17.4987H1.51899C0.680074 17.4987 0 16.8423 0 16.0327ZM27.4327 12.3515C27.5651 13.2938 27.6476 14.3007 27.6718 15.3486H31.3172C31.2922 14.2946 31.2071 13.2873 31.0719 12.3515H27.4327ZM10.2208 10.258C10.4315 11.1022 10.5966 12.0334 10.7075 13.0264L12.4517 14.5667H25.8161L26.8292 13.1742L26.857 13.193C26.7539 12.2345 26.5996 11.3379 26.4032 10.527L26.3644 10.5658L24.3697 8.70284H11.7247L10.2208 10.258ZM26.757 9.28923C26.9882 10.0139 27.182 10.8245 27.3314 11.6999H30.9676C30.8116 10.8134 30.6092 10.0019 30.3697 9.28923H26.757ZM8.27518 6.22698C8.36019 6.30736 8.44273 6.3937 8.52248 6.48544C9.00209 7.03718 9.41886 7.81618 9.76226 8.75018C9.85171 8.99346 9.93652 9.24848 10.0165 9.51422L11.4314 8.0513H24.6429L26.0851 9.39829C26.037 9.25074 25.9873 9.10724 25.9361 8.96804C25.6076 8.07452 25.2242 7.37455 24.8154 6.90423C24.4051 6.43222 24.0026 6.22698 23.6287 6.22698H8.27518ZM25.0853 6.22698C25.1703 6.30736 25.2529 6.3937 25.3326 6.48544C25.7928 7.01487 26.1951 7.75359 26.5303 8.63769H30.1292C29.8306 7.90078 29.4931 7.31494 29.1361 6.90423C28.7258 6.43222 28.3232 6.22698 27.9494 6.22698H25.0853ZM19.2653 5.57544H23.6039L23.1466 4.20721H19.7226L19.2653 5.57544ZM8.42985 5.57544H12.7685L12.3112 4.20721H8.88713L8.42985 5.57544ZM8.77637 16.0001C8.77637 17.3748 8.58441 18.6328 8.2647 19.5585C8.10544 20.0196 7.90836 20.4162 7.67313 20.7043C7.45477 20.9717 7.16851 21.1854 6.81856 21.21V21.2124H4.59072C4.10177 21.2124 3.7319 20.8487 3.4729 20.4262C3.20262 19.9853 2.98604 19.3772 2.83248 18.6734L3.49308 18.5391C3.63849 19.2056 3.83529 19.7378 4.05393 20.0944C4.28386 20.4696 4.47848 20.5609 4.59072 20.5609C4.67599 20.5609 4.81094 20.5112 4.98253 20.301C5.15113 20.0946 5.31778 19.7756 5.46394 19.3524C5.75508 18.5095 5.94093 17.3242 5.94093 16.0001C5.94093 14.676 5.75508 13.4907 5.46394 12.6478C5.31778 12.2246 5.15113 11.9056 4.98253 11.6992C4.81094 11.4891 4.67599 11.4393 4.59072 11.4393C4.47848 11.4393 4.28386 11.5307 4.05393 11.9058C3.83529 12.2625 3.63849 12.7946 3.49308 13.4611L2.83248 13.3268C2.98604 12.623 3.20262 12.015 3.4729 11.574C3.7319 11.1515 4.10177 10.7878 4.59072 10.7878H6.81856V10.7902C7.16851 10.8148 7.45477 11.0285 7.67313 11.2959C7.90836 11.584 8.10544 11.9806 8.2647 12.4418C8.58441 13.3674 8.77637 14.6255 8.77637 16.0001ZM27.6793 16.0001C27.6793 16.8526 27.6408 17.682 27.5682 18.476H31.2111C31.2853 17.6856 31.3249 16.8561 31.3249 16.0001H27.6793ZM32 16.0001C32 18.8159 31.5809 21.3791 30.8931 23.25C30.5497 24.184 30.1329 24.963 29.6533 25.5148C29.312 25.9073 28.9217 26.2029 28.4895 26.3401V26.4248H24.3133L23.6382 28.4446H19.231L18.5559 26.4248H13.4778L12.8027 28.4446H8.39557L7.72046 26.4248H6.81856C6.08151 26.4248 5.44444 25.9657 4.92801 25.2845C4.40699 24.5973 3.96392 23.6292 3.61748 22.4759L4.26589 22.2945C4.60035 23.4079 5.01567 24.2968 5.47284 24.8998C5.93459 25.5088 6.39551 25.7732 6.81856 25.7732C7.19244 25.7732 7.59497 25.568 8.00527 25.096C8.41411 24.6257 8.79746 23.9257 9.12599 23.0322C9.25222 22.6889 9.3693 22.3195 9.47626 21.9272L9.44099 21.8908L9.50059 21.837C9.74739 20.9103 9.93766 19.8591 10.0559 18.7223L10.027 18.6917L10.0622 18.6605C10.1479 17.8151 10.1941 16.923 10.1941 16.0001C10.1941 15.0772 10.1479 14.1851 10.0622 13.3396L10.027 13.3085L10.0559 13.2779C9.93766 12.1411 9.7474 11.0898 9.50059 10.1631L9.44099 10.1094L9.47626 10.0729C9.3693 9.68068 9.25221 9.31134 9.12599 8.96804C8.79746 8.07452 8.41411 7.37455 8.00527 6.90423C7.59497 6.43222 7.19244 6.22698 6.81856 6.22698C6.39551 6.22699 5.93459 6.49142 5.47284 7.10046C5.01567 7.70345 4.60035 8.5923 4.26589 9.70573L3.61748 9.52427C3.96392 8.371 4.40699 7.40292 4.92801 6.7157C5.44444 6.03454 6.08151 5.57545 6.81856 5.57544H7.72046L8.39557 3.55566H12.8027L13.4778 5.57544H18.5559L19.231 3.55566H23.6382L24.3133 5.57544H28.4895V5.66007C28.9218 5.79723 29.312 6.09286 29.6533 6.48544C30.1329 7.03718 30.5497 7.81618 30.8931 8.75018C31.5809 10.6211 32 13.1843 32 16.0001Z" fill="white"/>
</svg>
