<svg width="48" height="48" viewBox="0 0 48 48" fill="none" xmlns="http://www.w3.org/2000/svg">
<g clip-path="url(#clip0_571_2939)">
<path d="M26.6318 46.4312H12.6641V42.8481L13.6641 41.8276V45.4312H25.6318V29.605L26.6318 28.5835V46.4312ZM12.6641 42.8481L11.835 43.6958L9.69238 41.5962L12.6641 38.561V42.8481ZM25.6318 29.605L13.6641 41.8276V37.5396L25.6318 25.3169V29.605ZM24.1895 20.146C24.1871 20.2395 24.1843 20.3275 24.1826 20.4097C24.3569 20.409 24.5926 20.408 24.9092 20.4067C25.2308 20.4054 25.4685 20.4045 25.6436 20.4038C25.6452 20.3233 25.649 20.2373 25.6514 20.146H26.6445C26.6416 20.2614 26.6377 20.3683 26.6357 20.4663C26.6335 20.5817 26.6336 20.607 26.6338 20.6147C26.6339 20.617 26.6345 20.6194 26.6348 20.6255C26.635 20.6313 26.6355 20.6399 26.6357 20.6499C26.6362 20.6699 26.637 20.6936 26.6367 20.7271H26.6357V20.9087C26.6357 20.91 26.6348 20.9117 26.6348 20.9126L26.6357 20.9136C26.6356 20.9136 26.6344 20.9127 26.6318 20.9126V24.2954L25.6318 25.3169V21.5083H13.6641V37.5396L12.6641 38.561V20.5083H23.1904C23.1908 20.4784 23.1904 20.4408 23.1914 20.3921C23.1929 20.315 23.1962 20.2329 23.1982 20.146H24.1895ZM29.7363 22.3862H32.7012L26.6318 28.5835V24.2954L29.7363 21.1245V22.3862ZM35.5625 6.38428C35.7432 7.04714 35.8491 7.66858 35.9102 8.146L35.916 8.18213L35.9141 8.22021L35.915 8.22314L35.9141 8.26709C35.9136 8.29597 35.9127 8.33612 35.9121 8.37646C35.9115 8.4166 35.9113 8.45752 35.9111 8.49072C35.9109 8.52371 35.9104 8.53864 35.9102 8.54053L35.9131 8.60596L35.9141 8.63037L35.916 8.66455L35.9111 8.7085L35.4639 8.65479L35.9111 8.71143V8.71631C35.9109 8.71818 35.9095 8.72025 35.9092 8.72217C35.9086 8.7264 35.908 8.73136 35.9072 8.73584C35.9057 8.74492 35.9045 8.75513 35.9023 8.76514C35.8979 8.78541 35.8926 8.8082 35.8848 8.83154C35.8688 8.87891 35.8449 8.93084 35.8115 8.98389C35.7434 9.09203 35.6409 9.19292 35.502 9.27881C35.49 9.28619 35.4764 9.29217 35.4639 9.29932V10.146H36.9707V15.0415C37.2694 15.3166 37.5084 15.6295 37.6914 15.9614C37.9632 16.4545 38.082 16.9313 38.1357 17.272C38.1632 17.4464 38.1746 17.5971 38.1797 17.7104L38.1836 17.856V22.3862H34.9053V20.1343L35.9053 19.1128V21.3862H37.1836V17.856L37.1826 17.8091L37.832 17.146H37.0879C37.0344 16.9331 36.9517 16.6894 36.8164 16.4438C36.6561 16.1531 36.4385 15.8844 36.1582 15.6597L35.9707 15.5103V11.146H32.0635V15.481L31.8652 15.6304C31.5656 15.8569 31.3318 16.1318 31.1572 16.4272C31.0084 16.6793 30.9133 16.9293 30.8516 17.146H29.8232C29.8942 16.8129 30.0288 16.3719 30.2959 15.9194C30.492 15.5874 30.7464 15.2718 31.0635 14.9956V10.7466L31.6836 10.146H33.2363V9.50049C33.0742 9.46015 32.9401 9.40602 32.8311 9.33545C32.7671 9.29397 32.7118 9.24604 32.6641 9.19482L33.4443 8.43799C33.446 8.45895 33.4489 8.47877 33.4502 8.49756C33.4506 8.50383 33.4498 8.51009 33.4502 8.51611C33.4731 8.5224 33.5008 8.53138 33.5342 8.5376C33.659 8.56078 33.8503 8.57782 34.1328 8.56982C34.5776 8.55718 34.809 8.49413 34.918 8.44971C34.9183 8.41727 34.9186 8.38391 34.9189 8.35693C34.9195 8.31525 34.9214 8.27509 34.9219 8.24561C34.9219 8.24429 34.9219 8.24297 34.9219 8.2417C34.8821 7.93632 34.8205 7.57508 34.7354 7.18604L35.5625 6.38428ZM33.0137 22.3862H32.7012L33.0137 22.0659V22.3862ZM34.2686 17.3257C34.4979 17.3496 34.6275 17.4021 34.6963 17.4419C34.7786 17.4896 34.8073 17.537 34.8281 17.5747C34.8633 17.6386 34.8867 17.7196 34.8984 17.7944C34.9023 17.8191 34.9044 17.8388 34.9053 17.8511V20.1343L33.0137 22.0659V17.9204C33.0141 17.9166 33.0147 17.911 33.0156 17.9048C33.0174 17.8923 33.0197 17.876 33.0234 17.8569C33.0387 17.7796 33.0676 17.6917 33.1113 17.6177C33.1405 17.5684 33.1832 17.5073 33.2832 17.4507C33.3906 17.39 33.6031 17.313 34.0039 17.313L34.2686 17.3257ZM32.2314 17.146C32.1287 17.3309 32.0719 17.5167 32.043 17.6636C32.0287 17.7358 32.0203 17.7982 32.0166 17.8423C32.0161 17.8485 32.0152 17.8572 32.0146 17.8657L32.0137 17.8813V21.3862H30.7363V17.8423C30.7364 17.8372 30.7372 17.8332 30.7373 17.8296C30.7383 17.8047 30.7397 17.7705 30.7432 17.729L30.7598 17.5845C30.7672 17.5296 30.7761 17.4685 30.7891 17.4028C30.8044 17.3247 30.8252 17.2385 30.8516 17.146H32.2314ZM30.6953 20.146L29.7363 21.1245V20.146H30.6953ZM29.8232 17.146C29.8186 17.1677 29.8127 17.1887 29.8086 17.2095C29.7916 17.296 29.7784 17.3767 29.7686 17.4497L29.7471 17.645C29.7424 17.701 29.7389 17.7503 29.7373 17.7905L29.7363 17.8423V20.146H26.6445C26.6557 19.7127 26.6734 19.1613 26.7061 18.5259C26.728 18.0989 26.7554 17.6356 26.791 17.146H29.8232ZM26.6201 10.8765C26.5089 11.4062 26.4107 11.9481 26.3223 12.4937C26.1432 13.5981 26.0109 14.7045 25.9131 15.7407L24.4648 17.146H25.7959C25.7624 17.6155 25.7369 18.0598 25.7158 18.4702C25.6819 19.1299 25.663 19.7006 25.6514 20.146H24.1895C24.2009 19.684 24.2203 19.0875 24.2559 18.396C24.337 16.8177 24.5013 14.7337 24.8262 12.6167L26.6201 10.8765ZM23.6631 13.7446C23.4483 15.4466 23.3304 17.0603 23.2646 18.3394C23.2278 19.0555 23.2095 19.6719 23.1982 20.146H17.0625L23.6631 13.7446ZM37.0879 17.146C37.1135 17.2482 37.134 17.343 37.1475 17.4282C37.1682 17.5602 37.1779 17.6729 37.1816 17.7554L37.1826 17.8091L35.9053 19.1128V17.8267L35.9043 17.8159C35.9026 17.778 35.8989 17.7155 35.8867 17.6382C35.8644 17.4965 35.816 17.3208 35.7285 17.146H37.0879ZM34.0039 16.313C34.5275 16.3131 34.913 16.4121 35.1973 16.5767C35.4904 16.7465 35.6301 16.9599 35.7031 17.0923C35.7128 17.1098 35.7197 17.1284 35.7285 17.146H32.2314C32.238 17.1343 32.2431 17.1215 32.25 17.1099C32.3363 16.9638 32.4913 16.7491 32.791 16.5796C33.0843 16.4139 33.477 16.313 34.0039 16.313ZM27.0254 14.6616C26.9242 15.5296 26.8475 16.3708 26.791 17.146H25.7959C25.8279 16.698 25.8672 16.2271 25.9131 15.7407L27.0254 14.6616ZM31.6865 5.96436C31.846 6.21252 31.9995 6.54058 32.1387 6.96338C32.3374 7.56741 32.3506 7.58501 32.4062 8.02002C32.4355 8.24874 32.452 8.43766 32.4609 8.56494C32.4654 8.62854 32.4674 8.67669 32.4688 8.70557V8.72119C32.4686 8.74307 32.4706 8.76763 32.4736 8.79443C32.4799 8.849 32.4935 8.91255 32.5215 8.979C32.5544 9.05693 32.6028 9.129 32.6641 9.19482L31.6836 10.146H31.0635V10.7466L27.0254 14.6616C27.102 14.0043 27.193 13.3316 27.3018 12.6606C27.4771 11.5791 27.6918 10.5351 27.9521 9.58447L31.6865 5.96436ZM30.6855 1.81201C32.3118 1.81212 33.4303 2.58323 34.1914 3.53467L33.4727 4.23193C32.8505 3.43141 31.9603 2.81999 30.6895 2.81982C28.8001 2.81994 27.5178 4.25519 26.6631 5.98486C25.797 7.73782 25.2429 10.0284 24.8818 12.2554C24.8623 12.3758 24.8446 12.4964 24.8262 12.6167L23.6631 13.7446C23.7319 13.1989 23.8113 12.6441 23.9014 12.0884C24.2677 9.82849 24.8423 7.41941 25.7754 5.53076C26.6771 3.70607 28.2126 1.81226 30.6855 1.81201ZM30.6855 4.30518C31.2615 4.30528 31.7597 4.53566 32.1641 4.95947C32.2515 5.05112 32.3329 5.15215 32.4111 5.26025L31.6865 5.96436C31.6095 5.84445 31.532 5.74247 31.4521 5.65869C31.2208 5.41633 30.9743 5.31308 30.6885 5.31299C30.2312 5.31348 29.5823 5.63128 28.8555 7.10205C28.5086 7.80408 28.2083 8.64909 27.9521 9.58447L26.6201 10.8765C26.9529 9.29106 27.3933 7.81174 27.9678 6.64893C28.7493 5.06732 29.6545 4.30544 30.6855 4.30518ZM34.2363 9.57275V10.146H34.4639V9.55908C34.3916 9.56509 34.3157 9.56956 34.2363 9.57275ZM33.4727 4.23193C33.9386 4.83151 34.2553 5.53664 34.4648 6.17334C34.5783 6.51809 34.6644 6.86187 34.7354 7.18604L33.4443 8.43799C33.4336 8.29857 33.4175 8.112 33.3896 7.89404C33.3211 7.35835 33.2831 7.26499 33.0801 6.64795C32.9014 6.10491 32.6823 5.63512 32.4111 5.26025L33.4727 4.23193ZM38.3076 3.72314L35.5625 6.38428C35.5153 6.21116 35.4644 6.0348 35.4062 5.85791C35.1792 5.1679 34.7988 4.29395 34.1914 3.53467L36.2197 1.56885L38.3076 3.72314Z" fill="black"/>
</g>
<defs>
<clipPath id="clip0_571_2939">
<rect width="28.6152" height="46.8623" fill="white" transform="translate(9.69238 0.568848)"/>
</clipPath>
</defs>
</svg>
