<svg width="60" height="56" viewBox="0 0 60 56" fill="none" xmlns="http://www.w3.org/2000/svg">
<path fill-rule="evenodd" clip-rule="evenodd" d="M59.0013 7.60834L50.3209 11.7449L58.3789 12.3965L57.6931 17.6279L48.4653 22.0251L57.0251 22.7191L56.3799 27.6425L46.0753 32.5529L55.6354 33.3317L54.9365 38.6722L43.3399 46.3343L37.5497 39.7442L36.8345 39.9642L39.8631 48.897L30 55.3698V55.3731H29.9951V55.3698L20.132 48.897L23.1655 39.9642L22.4471 39.7442L16.6569 46.3343L5.05865 38.6722L4.35972 33.3317L13.9215 32.5529L3.61518 27.6425L2.97165 22.7191L11.5347 22.0251L2.30694 17.6279L1.62105 12.3965L9.67905 11.7449L0.99381 7.60834L0 0H11.3539L20.0228 21.7677H23.9948L24.7947 18.7211H35.2004L36.0052 21.7677H39.9772L48.6412 0H60L59.0013 7.60834ZM34.1398 15.0766H25.7478L27.7647 7.41447L34.1186 7.15705L37.333 9.36624L37.0088 12.737L36.1421 11.9795L34.8208 11.6178L33.3659 12.1603L34.1398 15.0766ZM27.768 6.29847L27.3933 4.50146L34.4754 3.16878L33.1541 6.07201L27.768 6.29847Z" fill="#041E42"/>
</svg>
