<svg width="250" height="64" viewBox="0 0 250 64" fill="none" xmlns="http://www.w3.org/2000/svg">
<path fill-rule="evenodd" clip-rule="evenodd" d="M46.9015 5.7772L39.9965 8.91775L46.4056 9.41294L45.8598 13.3831L38.5227 16.7192L45.3275 17.2491L44.8136 20.9847L36.6214 24.7117L44.2222 25.3024L43.6673 29.3552L34.4517 35.1715L29.8485 30.1718L29.2799 30.3369L31.6861 37.1175L23.8441 42.0303L16.0022 37.1175L18.413 30.3369L17.8399 30.1718L13.2413 35.1715L4.02107 29.3552L3.46615 25.3024L11.067 24.7117L2.8748 20.9847L2.36074 17.2491L9.17009 16.7192L1.83313 13.3831L1.28731 9.41294L7.69177 8.91775L0.791466 5.7772L0 0H9.02462L15.9158 16.5237H19.0726L19.7095 14.2128H27.9789L28.6202 16.5237H31.7771L38.6638 0H47.6929L46.9015 5.7772ZM27.1374 11.4458H20.469L22.0702 5.62952L27.1238 5.43839L29.6756 7.11509L29.4208 9.67356L28.7294 9.09584L27.6787 8.82219L26.5234 9.23485L27.1374 11.4458ZM22.0747 4.78249L21.7746 3.41854L27.4058 2.40644L26.355 4.60874L22.0747 4.78249Z" fill="#A6B8C1"/>
<path fill-rule="evenodd" clip-rule="evenodd" d="M120.626 0L107.203 40.6576H103.996L92.2743 5.16039L80.5524 40.6576H77.3501L63.9224 0H67.8888L79.0285 35.4755L90.1637 0H94.5395L105.675 35.4755L116.814 0H120.626ZM135.473 40.6576V37.4563H146.117V3.20135H135.473V0H160.486V3.20135H149.842V37.4563H160.486V40.6576H135.473ZM181.237 40.6576V0H184.963V37.4563H203.59V40.6576H181.237ZM245.901 40.6576L241.853 28.3604H226.369L222.325 40.6576H218.491L232.542 0H235.894L249.945 40.6576H245.901ZM240.843 25.1591L234.138 4.72601L227.379 25.1591H240.843Z" fill="#A6B8C1"/>
<path fill-rule="evenodd" clip-rule="evenodd" d="M71.5552 63.4275L76.2494 49.2842H77.6504L72.9562 63.4275H71.5552ZM95.9998 58.2932C95.9998 59.2024 95.6783 59.909 95.0354 60.4129C94.3925 60.9168 93.5025 61.1687 92.3654 61.1687C91.7892 61.1687 91.2328 61.1152 90.696 61.008C90.408 60.953 90.1305 60.8806 89.8636 60.7908H89.1221V58.0238H90.2957L90.4822 59.8526C91.0826 60.0176 91.674 60.1016 92.2562 60.1045C92.9749 60.1045 93.5465 59.9554 93.9711 59.6571C94.3956 59.3559 94.6078 58.9259 94.6078 58.367C94.6048 57.9587 94.4972 57.6271 94.2849 57.3723C94.0696 57.1174 93.8058 56.9234 93.4934 56.7902C93.1781 56.6541 92.7489 56.5064 92.2061 56.3471C91.5693 56.1676 91.0554 55.9881 90.6642 55.8085C90.273 55.629 89.941 55.3553 89.668 54.9875C89.3981 54.6169 89.2631 54.1275 89.2631 53.5194C89.2631 52.6216 89.574 51.9237 90.1956 51.4257C90.8173 50.9276 91.6754 50.6785 92.7702 50.6785C93.5919 50.6785 94.3501 50.7973 95.0445 51.0347H95.6085V53.806H94.435L94.2439 51.9295C94.156 51.9064 94.0681 51.8861 93.9802 51.8687C93.5405 51.7818 93.1371 51.7384 92.7702 51.7384C92.0939 51.7384 91.5693 51.8789 91.1963 52.1598C90.8264 52.4378 90.6414 52.8461 90.6414 53.3847C90.6414 53.793 90.746 54.1231 90.9552 54.3751C91.1645 54.6241 91.4253 54.8123 91.7376 54.9398C92.0499 55.0701 92.4791 55.2149 93.0249 55.3741C93.6708 55.5653 94.1893 55.7535 94.5805 55.9388C94.9747 56.1213 95.3099 56.3993 95.5859 56.7728C95.8618 57.1493 95.9998 57.6561 95.9998 58.2932ZM107.69 59.896V60.9863H100.435V60.0741L101.608 59.9655V51.8817L100.435 51.7688V50.8566H107.626V51.9469H102.941V55.2873H107.08V56.3775H102.941V59.896H107.69ZM119.398 59.896V60.9863H112.143V60.0741L113.317 59.9655V51.8817L112.143 51.7688V50.8566H119.334V51.9469H114.649V55.2873H118.784V56.3775H114.649V59.896H119.398ZM139.33 50.8566V53.7756H138.152L137.984 51.9469H135.678V59.9655L137.279 60.0741V60.9863H132.749V60.0741L134.345 59.9655V51.9469H132.039L131.871 53.7756H130.697V50.8566H139.33ZM152.744 51.8817V59.9655L153.918 60.0741V60.9863H150.234V60.0741L151.412 59.9655V56.3949H146.335V59.9655L147.509 60.0741V60.9863H143.824V60.0741L145.003 59.9655V51.8817L143.824 51.7688V50.8566H147.509V51.7688L146.335 51.8817V55.3003H151.412V51.8817L150.234 51.7688V50.8566H153.918V51.7688L152.744 51.8817ZM165.626 59.896V60.9906H158.371V60.0784L159.545 59.9655V51.8817L158.371 51.7732V50.861H165.563V51.9512H160.877V55.2873H165.012V56.3819H160.877V59.896H165.626ZM179.386 51.9512V55.2438H183.585V56.3341H179.386V59.9698L181.028 60.0784V60.9906H176.875V60.0784L178.053 59.9655V51.8817L176.875 51.7732V50.861H184.021V51.9512H179.386ZM198.067 51.7732L196.889 51.8817V57.6242C196.889 58.7999 196.566 59.6846 195.921 60.2783C195.272 60.8719 194.325 61.1687 193.082 61.1687C191.778 61.1687 190.815 60.8748 190.194 60.2869C189.572 59.6991 189.261 58.8115 189.261 57.6242V51.8817L188.083 51.7732V50.861H191.768V51.7732L190.589 51.8817V57.7589C190.589 58.616 190.777 59.2213 191.153 59.5746C191.533 59.9308 192.175 60.1088 193.082 60.1088C193.98 60.1088 194.617 59.9308 194.993 59.5746C195.369 59.2213 195.557 58.616 195.557 57.7589V51.8817L194.383 51.7732V50.861H198.067V51.7732ZM210.963 50.8566V53.7756H209.785L209.617 51.9512H207.31V59.9655L208.912 60.0784V60.9906H204.381V60.0784L205.978 59.9655V51.9512H203.671L203.503 53.7756H202.33V50.8566H210.963ZM225.205 51.7732L224.031 51.8817V57.6242C224.031 58.7999 223.707 59.6846 223.058 60.2783C222.412 60.8719 221.467 61.1687 220.224 61.1687C218.917 61.1687 217.953 60.8748 217.331 60.2869C216.71 59.6991 216.399 58.8115 216.399 57.6242V51.8817L215.225 51.7732V50.8566H218.905V51.7732L217.731 51.8817V57.7589C217.731 58.616 217.919 59.2213 218.295 59.5746C218.671 59.9279 219.314 60.1045 220.224 60.1045C221.122 60.1045 221.759 59.9279 222.135 59.5746C222.511 59.2213 222.699 58.616 222.699 57.7589V51.8817L221.525 51.7732V50.8566H225.205V51.7732ZM238.714 60.0828V60.995H235.958V60.2392L233.843 56.6078H231.928V59.9698L233.106 60.0828V60.995H229.422V60.0828L230.595 59.9698V51.8861L229.422 51.7732V50.861H233.825C234.598 50.861 235.241 50.9609 235.753 51.1607C236.263 51.3605 236.646 51.6675 236.904 52.0816C237.159 52.4957 237.286 53.0271 237.286 53.6757C237.286 54.5734 237.031 55.2424 236.522 55.6825C236.158 55.9895 235.697 56.2241 235.139 56.3862L237.309 59.9872L238.714 60.0828ZM233.37 55.6217C234.28 55.6217 234.918 55.4798 235.285 55.196C235.649 54.9122 235.831 54.42 235.831 53.7192C235.831 53.2413 235.765 52.8779 235.635 52.6289C235.505 52.3798 235.28 52.2046 234.962 52.1033C234.643 52.0048 234.17 51.9556 233.543 51.9556H231.928V55.6217H233.37ZM250 59.9004V60.995H242.745V60.0828L243.918 59.9698V51.8861L242.745 51.7775V50.861H249.936V51.9556H245.251V55.2916H249.386V56.3862H245.251V59.9004H250Z" fill="#A6B8C1"/>
</svg>
